<?xml version="1.0" encoding="iso-8859-1"?>
<!-- Uploaded to: SVG Repo, www.svgrepo.com, Generator: SVG Repo Mixer Tools -->
<!DOCTYPE svg PUBLIC "-//W3C//DTD SVG 1.1//EN" "http://www.w3.org/Graphics/SVG/1.1/DTD/svg11.dtd">
<svg fill="#000000" version="1.1" id="Capa_1" xmlns="http://www.w3.org/2000/svg" xmlns:xlink="http://www.w3.org/1999/xlink" 
	 width="800px" height="800px" viewBox="0 0 408.629 408.629"
	 xml:space="preserve">
<g>
	<g>
		<path d="M400.629,162.813h-91.391V64.079h7.318c4.418,0,8-3.582,8-8V23.815c0-4.418-3.582-8-8-8H47.035c-4.419,0-8,3.582-8,8
			v32.263c0,4.418,3.581,8,8,8h7.318v98.735H8c-4.419,0-8,3.582-8,8v47c0,4.418,3.581,8,8,8h14.315v159c0,4.418,3.582,8,8,8h348
			c4.418,0,8-3.582,8-8v-159h14.314c4.418,0,8-3.582,8-8v-47C408.629,166.396,405.047,162.813,400.629,162.813z M293.24,162.716
			H180.402V64.078H293.24V162.716z M308.557,48.079h-7.316H180.402V31.815h128.155V48.079z M55.035,31.815h109.367v16.263H62.353
			h-7.318V31.815z M164.402,64.079v98.639H70.353V64.079H164.402z M16.001,178.813h166.63v31H30.315H16.001V178.813z
			 M38.315,225.813H182.63v151H38.315V225.813z M370.314,376.813H198.63v-151h171.685V376.813z M392.629,209.813h-14.314H198.63v-31
			h193.999V209.813z"/>
	</g>
</g>
</svg>