<svg id="Layer_1" viewBox="0 0 24 24" xmlns="http://www.w3.org/2000/svg" data-name="Layer 1"><path d="m22.927 7.767s-.083-.343-.083-.343c-.297-1.167-1.3-2.057-2.497-2.215-.824-.109-1.652-.201-2.498-.276-.3-.33-1.017-.871-1.017-.871s-.69.494-.983.725c-2.547-.147-5.144-.146-7.69.002-.428-.318-1.045-.949-1.045-.949s-.851.818-.956 1.095c-.119.005-1.672.169-2.494.278-1.197.159-2.2 1.05-2.495 2.216l-.083.342c-.22.947.031 1.947.672 2.676.127.145.269.269.416.384.249.485.934 1.309.934 1.309s-.737.506-1.237.822c-.223 2.491-.022 5.099.597 7.319.318 1.137 1.278 1.984 2.448 2.156 2.019.297 4.05.466 6.083.508.337-.173 1.006-.923 1.006-.923s.62.73.994.923c2.037-.042 4.073-.211 6.097-.508 1.169-.172 2.13-1.019 2.447-2.156.62-2.223.821-4.834.597-7.329-.628-.557-1.707-.811-1.707-.811s1.184-.787 1.403-1.323c.147-.115.292-.232.419-.376.641-.729.892-1.729.671-2.675z" opacity=".5"/><path d="m3.985 13.465c2.638-.211 5.313-.423 8.042-.4 2.529 0 5.045.124 7.489.37.901.09 1.822-.092 2.625-.482-.065-.727-.166-1.44-.304-2.135-.599.464-1.379.689-2.132.626-2.537-.267-5.131-.348-7.692-.379-2.569.035-5.173.113-7.718.384-.763.081-1.523-.145-2.121-.617-.137.694-.24 1.405-.305 2.131.659.315 1.371.501 2.114.501z"/><path d="m14.438 1.043c-.952 0-1.814.39-2.438 1.018-.623-.628-1.485-1.018-2.438-1.018-1.896 0-3.438 1.542-3.438 3.438 0 .156.013.305.034.458.811-.073 1.761-.13 2-.148-.022-.101-.034-.205-.034-.31 0-.792.645-1.438 1.438-1.438s1.438.645 1.438 1.438v.206c-.009 0-.008 0 0 0v18.26c.333.007.666.01.999.01s.667-.003 1-.01c0 0 .01-18.261.001-18.261 0-.066-.001-.136-.001-.206 0-.792.645-1.438 1.438-1.438s1.438.645 1.438 1.438c0 .104-.011.208-.033.308.293.021 1.186.074 2 .147.02-.152.033-.299.033-.454 0-1.896-1.542-3.438-3.438-3.438z"/></svg>