<?xml version="1.0" encoding="iso-8859-1"?>
<!-- Uploaded to: SVG Repo, www.svgrepo.com, Generator: SVG Repo Mixer Tools -->
<!DOCTYPE svg PUBLIC "-//W3C//DTD SVG 1.1//EN" "http://www.w3.org/Graphics/SVG/1.1/DTD/svg11.dtd">
<svg fill="#000000" version="1.1" id="Capa_1" xmlns="http://www.w3.org/2000/svg" xmlns:xlink="http://www.w3.org/1999/xlink" 
	 width="800px" height="800px" viewBox="0 0 35.707 35.707"
	 xml:space="preserve">
<g>
	<path d="M33.249,29.698l-6.407-6.407h5.335l-8.05-8.05h5.863l-5.661-5.66h3.106L17.854,0L8.271,9.581h3.107l-5.66,5.66h5.863
		l-8.05,8.05h5.335l-6.407,6.407h13.766l-1.084,6.009h5.425l-1.084-6.009H33.249z M29.763,22.291h-3.922l-7.05-7.05h3.921
		L29.763,22.291z M24.427,22.291H11.28l6.573-6.573L24.427,22.291z M13.995,14.241l3.859-3.858l3.859,3.858H13.995z M27.576,14.241
		h-4.449l-4.661-4.66h4.449L27.576,14.241z M13.792,8.581l4.061-4.061l4.061,4.061H13.792z M10.686,8.581l7.168-7.167l7.167,7.167
		h-1.693l-5.474-5.475l-5.475,5.475H10.686z M8.131,14.241l4.66-4.66h4.449l-4.66,4.66H8.131z M5.944,22.291l7.05-7.05h3.921
		l-7.05,7.05H5.944z M10.279,23.291h15.148l5.406,5.407H4.873L10.279,23.291z"/>
</g>
</svg>